{"title":"Clash of the Titans(2010)MPEG-4[DaScubaDude]","uid":15114526,"size":1182007908,"categoryP":"video","categoryS":"movies","magnet":"?xt=urn:btih:ab5d1e380c6f0b5541cd0af49b878fd7e82e04f1&amp;dn=Clash+of+the+Titans%282010%29MPEG-4%5BDaScubaDude%5D&amp;tr=udp%3A%2F%2Ftracker.leechers-paradise.org%3A6969&amp;tr=udp%3A%2F%2Fzer0day.ch%3A1337&amp;tr=udp%3A%2F%2Fopen.demonii.com%3A1337&amp;tr=udp%3A%2F%2Ftracker.coppersurfer.tk%3A6969&amp;tr=udp%3A%2F%2Fexodus.desync.com%3A6969","seeders":1,"leechers":0,"uploader":"dascuba","files":1,"time":1467038501,"description":"Clash of the Titans (2010)\r\nPG-13 | 1h 46min | Action, Adventure, Fantasy | 2 April 2010 (USA)\r\nPerseus demigod, son of Zeus, battles the minions of the underworld to stop them from conquering heaven and earth.\r\nDirector: Louis Leterrier\r\nWriters: Travis Beacham (screenplay), Phil Hay (screenplay) | \r\nStars: Sam Worthington, Liam Neeson, Ralph Fiennes |\r\n\r\nGeneral\r\nComplete name                            : ClashoftheTitansCLASH_OF_THE_TITANS_Title1.mp4\r\nFormat                                   : MPEG-4\r\nFormat profile                           : Base Media\r\nCodec ID                                 : isom (isom/iso2/avc1/mp41)\r\nFile size                                : 1.10 GiB\r\nDuration                                 : 1h 57mn\r\nOverall bit rate mode                    : Variable\r\nOverall bit rate                         : 1 338 Kbps\r\nMovie name                               : CLASH_OF_THE_TITANS\r\nGenre                                    : Fantasy\r\nWriting application                      : Lavf54.6.100\r\n\r\nVideo\r\nID                                       : 1\r\nFormat                                   : AVC\r\nFormat/Info                              : Advanced Video Codec\r\nFormat profile                           :   \r\nFormat settings, CABAC                   : No\r\nFormat settings, ReFrames                : 6 frames\r\nCodec ID                                 : avc1\r\nCodec ID/Info                            : Advanced Video Coding\r\nDuration                                 : 1h 57mn\r\nBit rate                                 : 1 203 Kbps\r\nWidth                                    : 720 pixels\r\nHeight                                   : 404 pixels\r\nDisplay aspect ratio                     : 16:9\r\nFrame rate mode                          : Constant\r\nFrame rate                               : 29.970 (30000/1001) fps\r\nColor space                              : YUV\r\nChroma subsampling                       : 4:2:0\r\nBit depth                                : 8 bits\r\nScan type                                : Progressive\r\nBits/(Pixel*Frame)                       : 0.138\r\nStream size                              : 1 014 MiB (90%)\r\n\r\nAudio\r\nID                                       : 2\r\nFormat                                   : AAC\r\nFormat/Info                              : Advanced Audio Codec\r\nFormat profile                           : LC\r\nCodec ID                                 : 40\r\nDuration                                 : 1h 57mn\r\nBit rate mode                            : Variable\r\nBit rate                                 : 128 Kbps\r\nMaximum bit rate                         : 130 Kbps\r\nChannel(s)                               : 2 channels\r\nChannel positions                        : Front: L R\r\nSampling rate                            : 44.1 KHz\r\nFrame rate                               : 43.066 fps (1024 spf)\r\nCompression mode                         : Lossy\r\nStream size                              : 108 MiB (10%)\r\nDefault                                  : Yes\r\nAlternate group                          : 1","torrent":{"xt":"urn:btih:ab5d1e380c6f0b5541cd0af49b878fd7e82e04f1","amp;dn":"Clash+of+the+Titans%282010%29MPEG-4%5BDaScubaDude%5D","amp;tr":["udp%3A%2F%2Ftracker.leechers-paradise.org%3A6969","udp%3A%2F%2Fzer0day.ch%3A1337","udp%3A%2F%2Fopen.demonii.com%3A1337","udp%3A%2F%2Ftracker.coppersurfer.tk%3A6969","udp%3A%2F%2Fexodus.desync.com%3A6969"],"infoHash":"ab5d1e380c6f0b5541cd0af49b878fd7e82e04f1","infoHashBuffer":{"type":"Buffer","data":[171,93,30,56,12,111,11,85,65,205,10,244,155,135,143,215,232,46,4,241]},"announce":[],"urlList":[]}}